<?xml version="1.0" encoding="utf-8"?>
<!-- Generator: Adobe Illustrator 21.1.0, SVG Export Plug-In . SVG Version: 6.00 Build 0)  -->
<svg version="1.1" id="Слой_1" xmlns="http://www.w3.org/2000/svg" xmlns:xlink="http://www.w3.org/1999/xlink" x="0px" y="0px"
	 viewBox="0 0 32 29" style="enable-background:new 0 0 32 29;" xml:space="preserve">
<g>
	<g>
		<g>
			<path d="M0.2,0.1C0.2,0.1,0.2,0.1,0.2,0.1c0.5,0.2,0.9,0.1,1.4,0.2c0.3,0.1,0.7,0.1,1,0.1C1.8,0.3,1,0.3,0.2-0.1
				c0.1-0.1,0.2-0.2,0.3-0.2C0.8-0.2,1-0.2,1.2-0.2c0,0.1,0,0.2,0,0.2c0.7-0.2,1.3,0.3,2,0c0,0,0-0.1,0-0.1c0,0,0,0,0,0c0,0,0,0,0,0
				c0,0,0-0.1,0-0.1c0,0,0,0,0,0.1C2.6,0,2-0.1,1.3-0.2c1.1,0.1,2.1,0,3.2,0c0,0,0.1,0,0.2,0C4.8,0,5,0,5.2,0c0,0.3,0.1,0.8-0.2,0.7
				c0,0.1,0,0.2,0,0.2c0.4,0.3,0.5,1,0.1,1.2c-0.4,0.2-1,0-1.5,0.1c-0.4,0.1-0.7,0.1-1.1,0C2,2.1,1.4,2.2,0.9,2
				C0.7,1.9,0.4,2.1,0.3,1.9C0.2,1.8,0.2,1.7,0.3,1.6c0.3,0,0.6,0,0.9,0c0.4,0.1,0.7,0.1,1.1,0.2C1.9,1.7,1.5,1.7,1.2,1.6
				c-0.3,0-0.6-0.1-0.9-0.2c0-0.1,0-0.2,0-0.3c0,0-0.1,0-0.1,0c-0.2-0.3-0.1-0.6,0-0.9C0.1,0.2,0.1,0.1,0.2,0.1z"/>
		</g>
	</g>
</g>
<g>
	<g>
		<g>
			<path d="M9.5,19.1c0-0.1,0-0.2,0-0.2c-0.3-1.5-0.7-2.9-1.1-4.6c-0.2-1.2-0.6-2.4-1-3.5c0.7,2.7,1.5,5.5,1.9,8.1
				C9.1,18.7,9,18.4,8.9,18c-0.2-0.9-0.4-1.7-0.6-2.6c0.1,0,0.2,0,0.2-0.1c-0.9-2.4-1.1-4.7-2-7.1c0,0.1-0.1,0.1-0.1,0c0,0,0,0,0,0
				c0,0,0,0,0,0c0,0-0.1,0,0,0.2c0-0.1,0-0.2,0-0.2c0.7,2.4,1.3,4.6,1.9,7c-1-3.7-2.1-7.2-3.2-11c0-0.2-0.1-0.5-0.2-0.6
				c0-0.7-0.2-1.3-0.4-2C4.8,1.8,5.1,1,5.4,2.3c0.1,0,0.2,0,0.2-0.1C5.5,0.9,6.1,0.2,6.6,1.4c0.6,1.4,1,3.4,1.6,5.1
				c0.4,1.3,0.8,2.5,1.1,3.9c0.4,1.8,1,3.7,1.3,5.5c0.1,0.7,0.6,1.7,0.6,2.1c0,0.3-0.1,0.3-0.2,0.3c-0.3-1.1-0.6-2.1-0.9-3.2
				c-0.3-1.3-0.6-2.6-0.9-3.9c0.2,1.3,0.5,2.6,0.9,3.9c0.3,1.1,0.5,2.1,0.8,3.2c-0.1,0-0.2,0-0.3,0.1c0,0,0.1,0.3,0.1,0.5
				c-0.1,0.7-0.5,0.7-0.8,0.4C9.7,19.2,9.6,19.2,9.5,19.1z"/>
		</g>
	</g>
</g>
<g>
	<g>
		<g>
			<path d="M30.2,8c-0.1,0-0.1,0-0.2,0c-1.3-0.2-2.6-0.1-4.1-0.2c-1-0.1-2.2-0.1-3.2-0.1c2.4,0.1,5,0.1,7.3,0.5
				c-0.2,0.1-0.5,0.2-0.8,0.2c-0.8-0.1-1.6-0.1-2.3-0.1c0-0.1,0-0.2,0-0.2c-2.2,0.2-4.2-0.3-6.4,0c0.1,0,0,0.1,0,0.1c0,0,0,0,0,0
				c0,0,0,0,0,0c0,0,0,0.1,0.1,0.1c-0.1,0-0.1,0-0.1-0.1c2.1,0,4.2,0,6.3,0.1c-3.3-0.1-6.5,0-10,0c-0.1,0-0.4,0-0.6,0
				c-0.6-0.2-1.2-0.2-1.7-0.2c0.1-0.3-0.4-0.8,0.7-0.7c0-0.1,0-0.2,0-0.2c-1.2-0.3-1.6-1-0.4-1.2c1.3-0.2,3.1,0,4.7-0.1
				c1.2,0,2.3-0.1,3.5,0c1.6,0.2,3.3,0.1,4.9,0.3c0.6,0.1,1.6-0.1,1.9,0.1C30,6.2,30,6.3,30,6.4c-1,0-1.9,0-2.9-0.1
				c-1.2-0.1-2.3-0.1-3.5-0.2c1.1,0.2,2.3,0.2,3.5,0.2C28,6.4,29,6.5,29.9,6.5c0,0.1-0.1,0.2,0,0.3c0,0,0.3,0,0.4,0
				c0.6,0.3,0.4,0.6,0.1,0.9C30.4,7.8,30.3,7.9,30.2,8z"/>
		</g>
	</g>
</g>
<g>
	<g>
		<g>
			<path d="M31.5,7.8c0,0-0.1,0.1-0.1,0.1c-0.6,0.9-1,1.9-1.5,2.9c-0.4,0.7-0.8,1.6-1.1,2.4c0.9-1.8,1.7-3.7,2.8-5.2
				c0,0.2,0,0.5-0.1,0.7c-0.3,0.6-0.6,1.1-0.9,1.7c0,0-0.1-0.1-0.2-0.1c-0.6,1.7-1.6,3-2.1,4.8c0.1,0,0.1,0,0.1,0c0,0,0,0,0,0
				c0,0,0,0,0,0c0,0,0,0,0.1-0.1c0,0.1-0.1,0.1-0.1,0.1c0.7-1.6,1.4-3.1,2.2-4.6c-1.2,2.4-2.2,4.9-3.3,7.4c0,0.1-0.1,0.3-0.2,0.4
				c-0.3,0.4-0.6,0.8-0.8,1.2c-0.2-0.2-0.9,0-0.4-0.8c0,0-0.1-0.1-0.2-0.1c-0.6,0.8-1.5,0.8-1.3-0.2c0.2-1.1,1-2.3,1.4-3.5
				c0.3-0.9,0.7-1.8,1.2-2.6c0.7-1.1,1.2-2.4,1.9-3.6c0.2-0.4,0.4-1.2,0.7-1.4c0.1-0.1,0.2-0.1,0.4,0c-0.3,0.7-0.7,1.4-1,2.1
				c-0.4,0.8-0.9,1.7-1.4,2.5c0.5-0.8,0.9-1.6,1.4-2.5c0.4-0.7,0.7-1.4,1.1-2c0.1,0.1,0.2,0.1,0.3,0.1c0,0,0.1-0.2,0.1-0.3
				c0.4-0.3,0.7-0.1,0.9,0.3C31.4,7.6,31.4,7.7,31.5,7.8z"/>
		</g>
	</g>
</g>
<g>
	<g>
		<g>
			<path d="M24.8,20.3c-0.1,0-0.1,0-0.2,0c-1.2-0.2-2.3-0.1-3.6-0.2C20.1,20,19.1,20,18.2,20c2.1,0.1,4.4,0.1,6.4,0.4
				c-0.2,0.1-0.5,0.2-0.7,0.2c-0.7-0.1-1.4-0.1-2-0.1c0-0.1,0-0.2,0-0.2c-1.9,0.2-3.7-0.3-5.6,0c0.1,0,0,0.1,0,0.1c0,0,0,0,0,0
				c0,0,0,0,0,0c0,0,0,0.1,0.1,0.1c-0.1,0-0.1,0-0.1-0.1c1.9-0.1,3.7,0,5.5,0.1c-2.9-0.1-5.8,0-8.8,0c-0.1,0-0.4,0-0.5,0
				c-0.5-0.2-1-0.2-1.5-0.2c0.1-0.3-0.4-0.8,0.6-0.7c0-0.1,0-0.2,0-0.2c-1-0.3-1.4-1-0.4-1.2c1.2-0.2,2.7,0,4.1-0.1
				c1-0.1,2-0.1,3.1,0c1.4,0.2,2.9,0.1,4.4,0.3c0.5,0.1,1.4-0.1,1.7,0.1c0.2,0.1,0.2,0.2,0.2,0.3c-0.8,0-1.7,0-2.5,0
				c-1-0.1-2-0.1-3.1-0.2c1,0.1,2,0.2,3.1,0.2c0.8,0,1.7,0.1,2.5,0.2c0,0.1-0.1,0.2,0,0.3c0,0,0.3,0,0.4,0c0.5,0.3,0.4,0.6,0.1,0.9
				C25,20.2,24.9,20.3,24.8,20.3z"/>
		</g>
	</g>
</g>
<g>
	<g>
		<g>
			<path d="M10.1,26.1C10.1,26.1,10.1,26.1,10.1,26.1c0.1-0.5-0.4-0.8-0.9-0.8c-0.4,0-0.7,0.4-0.8,0.8c0.1-0.4,0.5-0.8,0.9-0.7
				c0.4,0,0.7,0.4,0.6,0.7c-0.1,0-0.2,0-0.3,0c0-0.1-0.1-0.2-0.2-0.3c0-0.1,0-0.2,0-0.2c-0.3,0.1-0.5,0.1-0.7,0.3
				c-0.2,0.2-0.2,0.6,0.1,0.7c0,0,0-0.1,0.1-0.1l0,0l0,0c0,0,0,0,0-0.1c0,0,0,0,0,0.1c-0.2-0.1-0.2-0.4-0.1-0.6
				c0.1-0.2,0.3-0.3,0.5-0.2c-0.3-0.1-0.6,0.2-0.5,0.5c0.1,0.3,0.5,0.4,0.7,0.3c0,0,0.1,0,0.1-0.1c0.2,0,0.3-0.1,0.3-0.2
				c0.2,0.1,0.9-0.1,0.6,0.5c0,0,0.1,0.1,0.2,0.1c0.3-0.3,0.5-0.5,0.8-0.6c0.2-0.1,0.5,0,0.5,0.7c-0.1,0.7-0.6,1.5-1.4,1.9
				c-0.8,0.4-1.8,0.4-2.6,0.1c-0.6-0.2-1.1-0.7-1.4-1.3c-0.3-0.6-0.4-1.3-0.2-1.9c0.2-0.9,0.8-1.6,1.7-2c0.8-0.4,1.8-0.3,2.4,0.2
				c0.2,0.2,0.6,0.4,0.8,0.6c0.2,0.3,0.4,0.6,0.4,0.7c0,0.2-0.1,0.2-0.2,0.3c-0.2-0.8-0.9-1.4-1.7-1.6c-1-0.3-2.1,0.2-2.7,1.1
				c0.6-0.9,1.7-1.4,2.7-1.1c0.8,0.2,1.4,0.8,1.6,1.6c-0.1,0-0.2,0-0.3,0.1c0,0,0.1,0.2,0.1,0.3c-0.2,0.4-0.6,0.2-0.9,0.2
				C10.2,26.1,10.1,26.1,10.1,26.1z"/>
		</g>
	</g>
</g>
<g>
	<g>
		<g>
			<path d="M25.8,26.1C25.8,26.1,25.8,26.1,25.8,26.1c0.1-0.5-0.4-0.8-0.9-0.8c-0.4,0-0.7,0.4-0.8,0.8c0.1-0.4,0.5-0.8,0.9-0.7
				c0.4,0,0.7,0.4,0.6,0.7c-0.1,0-0.2,0-0.3,0c0-0.1-0.1-0.2-0.2-0.3c0-0.1,0-0.2,0-0.2c-0.3,0.1-0.5,0.1-0.7,0.3
				c-0.2,0.2-0.2,0.6,0.1,0.7c0,0,0-0.1,0.1-0.1l0,0l0,0c0,0,0,0,0-0.1c0,0,0,0,0,0.1c-0.2-0.1-0.2-0.4-0.1-0.6
				c0.1-0.2,0.3-0.3,0.5-0.2c-0.3-0.1-0.6,0.2-0.5,0.5c0.1,0.3,0.5,0.4,0.7,0.3c0,0,0.1,0,0.1-0.1c0.2,0,0.3-0.1,0.3-0.2
				c0.2,0.1,0.9-0.1,0.6,0.5c0,0,0.1,0.1,0.2,0.1c0.3-0.3,0.5-0.5,0.8-0.6c0.2-0.1,0.5,0,0.5,0.7c-0.1,0.7-0.6,1.5-1.4,1.9
				c-0.8,0.4-1.8,0.4-2.6,0.1c-0.6-0.2-1.1-0.7-1.4-1.3c-0.3-0.6-0.4-1.3-0.2-1.9c0.2-0.9,0.8-1.6,1.7-2c0.8-0.4,1.8-0.3,2.4,0.2
				c0.2,0.2,0.6,0.4,0.8,0.6c0.2,0.3,0.4,0.6,0.4,0.7c0,0.2-0.1,0.2-0.2,0.3c-0.2-0.8-0.9-1.4-1.7-1.6c-1-0.3-2.1,0.2-2.7,1.1
				c0.6-0.9,1.7-1.4,2.7-1.1c0.8,0.2,1.4,0.8,1.6,1.6c-0.1,0-0.2,0-0.3,0.1c0,0,0.1,0.2,0.1,0.3c-0.2,0.4-0.6,0.2-0.9,0.2
				C25.9,26.1,25.9,26.1,25.8,26.1z"/>
		</g>
	</g>
</g>
<g>
	<g>
		<g>
			<path d="M9.5,26.2L9.5,26.2C9.5,26.2,9.5,26.2,9.5,26.2C9.5,26.2,9.5,26.2,9.5,26.2C9.5,26.2,9.5,26.2,9.5,26.2L9.5,26.2
				C9.5,26.2,9.5,26.2,9.5,26.2C9.5,26.2,9.5,26.2,9.5,26.2L9.5,26.2L9.5,26.2L9.5,26.2L9.5,26.2L9.5,26.2
				C9.5,26.2,9.5,26.2,9.5,26.2C9.5,26.2,9.5,26.2,9.5,26.2L9.5,26.2C9.5,26.2,9.5,26.2,9.5,26.2L9.5,26.2c0,0,0.1,0,0.1,0
				c0,0,0,0,0,0c0,0,0.1,0.1,0.2,0.1c0.2,0,0.4-0.1,0.7-0.1c0.2,0,0.5,0,0.6,0.4c0,0.4-0.3,0.9-0.8,1.1c-0.5,0.2-1,0.2-1.5,0
				c-0.7-0.2-1.2-1.1-1-1.9c0.2-0.5,0.5-0.9,1-1.1c0.5-0.2,1-0.1,1.3,0.2c0.2,0.1,0.7,0.5,0.6,0.7c0,0.1-0.2,0.2-0.3,0.2
				c-0.1-0.4-0.4-0.6-0.8-0.7c-0.4-0.2-1,0-1.4,0.5c0.4-0.4,0.9-0.6,1.4-0.5c0.4,0.1,0.6,0.4,0.7,0.8c-0.1,0-0.2,0.1-0.3,0.1
				c0,0,0,0.1,0,0.1c-0.1,0.1-0.3,0.1-0.5,0.1L9.5,26.2L9.5,26.2L9.5,26.2L9.5,26.2z"/>
		</g>
	</g>
</g>
<g>
	<g>
		<g>
			<path d="M25.1,26.2L25.1,26.2C25.1,26.2,25.1,26.2,25.1,26.2C25.1,26.2,25.1,26.2,25.1,26.2C25.1,26.2,25.1,26.2,25.1,26.2
				L25.1,26.2C25.1,26.2,25.1,26.2,25.1,26.2C25.1,26.2,25.1,26.2,25.1,26.2L25.1,26.2L25.1,26.2L25.1,26.2L25.1,26.2L25.1,26.2
				C25.1,26.2,25.1,26.2,25.1,26.2C25.1,26.2,25.1,26.2,25.1,26.2L25.1,26.2C25.1,26.2,25.1,26.2,25.1,26.2L25.1,26.2
				c0,0,0.1,0,0.1,0c0,0,0,0,0,0c0,0,0.1,0.1,0.2,0.1c0.2,0,0.4-0.1,0.7-0.1c0.2,0,0.5,0,0.6,0.4c0,0.4-0.3,0.9-0.8,1.1
				c-0.5,0.2-1,0.2-1.5,0c-0.7-0.2-1.2-1.1-1-1.9c0.2-0.5,0.5-0.9,1-1.1c0.5-0.2,1-0.1,1.3,0.2c0.2,0.1,0.7,0.5,0.6,0.7
				c0,0.1-0.2,0.2-0.3,0.2c-0.1-0.4-0.4-0.6-0.8-0.7c-0.4-0.2-1,0-1.4,0.5c0.4-0.4,0.9-0.6,1.4-0.5c0.4,0.1,0.6,0.4,0.7,0.8
				c-0.1,0-0.2,0.1-0.3,0.1c0,0,0,0.1,0,0.1c-0.1,0.1-0.3,0.1-0.5,0.1L25.1,26.2L25.1,26.2L25.1,26.2L25.1,26.2z"/>
		</g>
	</g>
</g>
</svg>
